<svg xmlns="http://www.w3.org/2000/svg" role="img" width="100%" viewBox="0 0 520 430" preserveAspectRatio="xMidYMid meet"><title>Profile emphasis radar</title><desc>Relative breadth calculated from configured capability entries, not self-rated proficiency.</desc><rect width="520" height="430" rx="8" fill="#171C21" stroke="#343A40"/><text x="22.0" y="32.0" font-family="Consolas,Liberation Mono,monospace" font-size="12" font-weight="700" fill="#FB7185" text-anchor="start">PROFILE EMPHASIS</text><polygon points="260.0,178.8 295.7,199.4 295.7,240.6 260.0,261.2 224.3,240.6 224.3,199.4" fill="none" stroke="#343A40"/><polygon points="260.0,137.5 331.4,178.8 331.4,261.2 260.0,302.5 188.6,261.3 188.6,178.8" fill="none" stroke="#343A40"/><polygon points="260.0,95.0 368.3,157.5 368.3,282.5 260.0,345.0 151.7,282.5 151.7,157.5" fill="none" stroke="#343A40"/><line x1="260.0" y1="220.0" x2="260.0" y2="95.0" stroke="#343A40"/><line x1="260.0" y1="220.0" x2="368.3" y2="157.5" stroke="#343A40"/><line x1="260.0" y1="220.0" x2="368.3" y2="282.5" stroke="#343A40"/><line x1="260.0" y1="220.0" x2="260.0" y2="345.0" stroke="#343A40"/><line x1="260.0" y1="220.0" x2="151.7" y2="282.5" stroke="#343A40"/><line x1="260.0" y1="220.0" x2="151.7" y2="157.5" stroke="#343A40"/><polygon points="260.0,136.7 368.3,157.5 368.3,282.5 260.0,345.0 187.8,261.7 151.7,157.5" fill="#FB7185" fill-opacity="0.22" stroke="#FB7185" stroke-width="2"/><text x="260.0" y="65.0" font-family="Consolas,Liberation Mono,monospace" font-size="10" font-weight="700" fill="#F4F4F5" text-anchor="middle">LANGUAGES</text><text x="397.7" y="144.5" font-family="Consolas,Liberation Mono,monospace" font-size="10" font-weight="700" fill="#F4F4F5" text-anchor="middle">AI_ML</text><text x="397.7" y="303.5" font-family="Consolas,Liberation Mono,monospace" font-size="10" font-weight="700" fill="#F4F4F5" text-anchor="middle">GENAI</text><text x="260.0" y="383.0" font-family="Consolas,Liberation Mono,monospace" font-size="10" font-weight="700" fill="#F4F4F5" text-anchor="middle">ANALYTICS</text><text x="122.3" y="303.5" font-family="Consolas,Liberation Mono,monospace" font-size="10" font-weight="700" fill="#F4F4F5" text-anchor="middle">AUTOMATE</text><text x="122.3" y="144.5" font-family="Consolas,Liberation Mono,monospace" font-size="10" font-weight="700" fill="#F4F4F5" text-anchor="middle">DELIVERY</text><text x="260.0" y="407.0" font-family="Segoe UI,Helvetica,Arial,sans-serif" font-size="11" font-weight="400" fill="#A1A1AA" text-anchor="middle">Relative breadth of listed capabilities - not a proficiency score</text></svg>