<svg xmlns="http://www.w3.org/2000/svg" role="img" width="100%" viewBox="0 0 390 720" preserveAspectRatio="xMidYMid meet"><title>Mobile Systems Console identity for Sushant Nemade</title><desc>Mobile dark terminal identity panel with a pixel GitHub mark and professional profile facts.</desc><rect width="390" height="720" rx="8" fill="#080B10" stroke="#293241"/><path d="M1 46 H389" stroke="#293241"/><circle cx="20" cy="23" r="4" fill="#FB7185"/><circle cx="36" cy="23" r="4" fill="#FBBF24"/><circle cx="52" cy="23" r="4" fill="#34D399"/><style>.boot{opacity:1;animation:boot .45s ease-out both}.d1{animation-delay:.2s}.d2{animation-delay:.4s}.d3{animation-delay:.6s}.cursor{opacity:1;animation:blink 1.1s steps(2,end) infinite}.module{transform-box:fill-box;transform-origin:center;animation:breathe 4s ease-in-out infinite}.m2{animation-delay:.5s}.m3{animation-delay:1s}.m4{animation-delay:1.5s}.m5{animation-delay:2s}.scan{animation:scan 7s linear infinite}@keyframes boot{from{opacity:0;transform:translateY(7px)}to{opacity:1;transform:none}}@keyframes blink{50%{opacity:.15}}@keyframes breathe{0%,100%{opacity:.82}50%{opacity:1}}@keyframes scan{from{transform:translateY(0)}to{transform:translateY(430px)}}@media(prefers-reduced-motion:reduce){.boot,.cursor,.module,.scan{animation:none}.moving{display:none}}</style><text x="76.0" y="28.0" font-family="Consolas,Liberation Mono,monospace" font-size="10" font-weight="400" fill="#8792A2" text-anchor="start">systems-console / identity</text><rect x="44" y="66" width="302" height="286" rx="5" fill="#0E131B" stroke="#293241"/><g id="pixel-github-mark"><circle cx="147.9" cy="117.6" r="1.88" fill="#22D3EE"/><circle cx="253.2" cy="117.6" r="1.88" fill="#22D3EE"/><circle cx="147.9" cy="123.1" r="1.88" fill="#22D3EE"/><circle cx="153.4" cy="123.1" r="1.88" fill="#22D3EE"/><circle cx="247.6" cy="123.1" r="1.88" fill="#22D3EE"/><circle cx="253.2" cy="123.1" r="1.88" fill="#22D3EE"/><circle cx="147.9" cy="128.6" r="1.88" fill="#22D3EE"/><circle cx="153.4" cy="128.6" r="1.88" fill="#22D3EE"/><circle cx="159.0" cy="128.6" r="1.88" fill="#22D3EE"/><circle cx="192.2" cy="128.6" r="1.88" fill="#22D3EE"/><circle cx="197.8" cy="128.6" r="1.88" fill="#22D3EE"/><circle cx="203.3" cy="128.6" r="1.88" fill="#22D3EE"/><circle cx="208.9" cy="128.6" r="1.88" fill="#22D3EE"/><circle cx="242.1" cy="128.6" r="1.88" fill="#22D3EE"/><circle cx="247.6" cy="128.6" r="1.88" fill="#22D3EE"/><circle cx="253.2" cy="128.6" r="1.88" fill="#22D3EE"/><circle cx="147.9" cy="134.2" r="1.88" fill="#22D3EE"/><circle cx="153.4" cy="134.2" r="1.88" fill="#22D3EE"/><circle cx="159.0" cy="134.2" r="1.88" fill="#22D3EE"/><circle cx="164.5" cy="134.2" r="1.88" fill="#22D3EE"/><circle cx="175.6" cy="134.2" r="1.88" fill="#22D3EE"/><circle cx="181.1" cy="134.2" r="1.88" fill="#22D3EE"/><circle cx="186.7" cy="134.2" r="1.88" fill="#22D3EE"/><circle cx="192.2" cy="134.2" r="1.88" fill="#22D3EE"/><circle cx="197.8" cy="134.2" r="1.88" fill="#22D3EE"/><circle cx="203.3" cy="134.2" r="1.88" fill="#22D3EE"/><circle cx="208.9" cy="134.2" r="1.88" fill="#22D3EE"/><circle cx="214.4" cy="134.2" r="1.88" fill="#22D3EE"/><circle cx="219.9" cy="134.2" r="1.88" fill="#22D3EE"/><circle cx="225.5" cy="134.2" r="1.88" fill="#22D3EE"/><circle cx="231.0" cy="134.2" r="1.88" fill="#22D3EE"/><circle cx="236.6" cy="134.2" r="1.88" fill="#22D3EE"/><circle cx="242.1" cy="134.2" r="1.88" fill="#22D3EE"/><circle cx="247.6" cy="134.2" r="1.88" fill="#22D3EE"/><circle cx="253.2" cy="134.2" r="1.88" fill="#22D3EE"/><circle cx="147.9" cy="139.7" r="1.88" fill="#22D3EE"/><circle cx="153.4" cy="139.7" r="1.88" fill="#22D3EE"/><circle cx="159.0" cy="139.7" r="1.88" fill="#22D3EE"/><circle cx="164.5" cy="139.7" r="1.88" fill="#22D3EE"/><circle cx="170.1" cy="139.7" r="1.88" fill="#22D3EE"/><circle cx="175.6" cy="139.7" r="1.88" fill="#22D3EE"/><circle cx="181.1" cy="139.7" r="1.88" fill="#22D3EE"/><circle cx="186.7" cy="139.7" r="1.88" fill="#22D3EE"/><circle cx="192.2" cy="139.7" r="1.88" fill="#22D3EE"/><circle cx="197.8" cy="139.7" r="1.88" fill="#22D3EE"/><circle cx="203.3" cy="139.7" r="1.88" fill="#22D3EE"/><circle cx="208.9" cy="139.7" r="1.88" fill="#22D3EE"/><circle cx="214.4" cy="139.7" r="1.88" fill="#22D3EE"/><circle cx="219.9" cy="139.7" r="1.88" fill="#22D3EE"/><circle cx="225.5" cy="139.7" r="1.88" fill="#22D3EE"/><circle cx="231.0" cy="139.7" r="1.88" fill="#22D3EE"/><circle cx="236.6" cy="139.7" r="1.88" fill="#22D3EE"/><circle cx="242.1" cy="139.7" r="1.88" fill="#22D3EE"/><circle cx="247.6" cy="139.7" r="1.88" fill="#22D3EE"/><circle cx="253.2" cy="139.7" r="1.88" fill="#22D3EE"/><circle cx="147.9" cy="145.3" r="1.88" fill="#22D3EE"/><circle cx="153.4" cy="145.3" r="1.88" fill="#22D3EE"/><circle cx="159.0" cy="145.3" r="1.88" fill="#22D3EE"/><circle cx="164.5" cy="145.3" r="1.88" fill="#22D3EE"/><circle cx="170.1" cy="145.3" r="1.88" fill="#22D3EE"/><circle cx="175.6" cy="145.3" r="1.88" fill="#22D3EE"/><circle cx="181.1" cy="145.3" r="1.88" fill="#22D3EE"/><circle cx="186.7" cy="145.3" r="1.88" fill="#22D3EE"/><circle cx="192.2" cy="145.3" r="1.88" fill="#22D3EE"/><circle cx="197.8" cy="145.3" r="1.88" fill="#22D3EE"/><circle cx="203.3" cy="145.3" r="1.88" fill="#22D3EE"/><circle cx="208.9" cy="145.3" r="1.88" fill="#22D3EE"/><circle cx="214.4" cy="145.3" r="1.88" fill="#22D3EE"/><circle cx="219.9" cy="145.3" r="1.88" fill="#22D3EE"/><circle cx="225.5" cy="145.3" r="1.88" fill="#22D3EE"/><circle cx="231.0" cy="145.3" r="1.88" fill="#22D3EE"/><circle cx="236.6" cy="145.3" r="1.88" fill="#22D3EE"/><circle cx="242.1" cy="145.3" r="1.88" fill="#22D3EE"/><circle cx="247.6" cy="145.3" r="1.88" fill="#22D3EE"/><circle cx="253.2" cy="145.3" r="1.88" fill="#22D3EE"/><circle cx="147.9" cy="150.8" r="1.88" fill="#22D3EE"/><circle cx="153.4" cy="150.8" r="1.88" fill="#22D3EE"/><circle cx="159.0" cy="150.8" r="1.88" fill="#22D3EE"/><circle cx="164.5" cy="150.8" r="1.88" fill="#22D3EE"/><circle cx="170.1" cy="150.8" r="1.88" fill="#22D3EE"/><circle cx="175.6" cy="150.8" r="1.88" fill="#22D3EE"/><circle cx="181.1" cy="150.8" r="1.88" fill="#22D3EE"/><circle cx="186.7" cy="150.8" r="1.88" fill="#22D3EE"/><circle cx="192.2" cy="150.8" r="1.88" fill="#22D3EE"/><circle cx="197.8" cy="150.8" r="1.88" fill="#22D3EE"/><circle cx="203.3" cy="150.8" r="1.88" fill="#22D3EE"/><circle cx="208.9" cy="150.8" r="1.88" fill="#22D3EE"/><circle cx="214.4" cy="150.8" r="1.88" fill="#22D3EE"/><circle cx="219.9" cy="150.8" r="1.88" fill="#22D3EE"/><circle cx="225.5" cy="150.8" r="1.88" fill="#22D3EE"/><circle cx="231.0" cy="150.8" r="1.88" fill="#22D3EE"/><circle cx="236.6" cy="150.8" r="1.88" fill="#22D3EE"/><circle cx="242.1" cy="150.8" r="1.88" fill="#22D3EE"/><circle cx="247.6" cy="150.8" r="1.88" fill="#22D3EE"/><circle cx="253.2" cy="150.8" r="1.88" fill="#22D3EE"/><circle cx="142.4" cy="156.4" r="1.88" fill="#22D3EE"/><circle cx="147.9" cy="156.4" r="1.88" fill="#22D3EE"/><circle cx="153.4" cy="156.4" r="1.88" fill="#22D3EE"/><circle cx="159.0" cy="156.4" r="1.88" fill="#22D3EE"/><circle cx="164.5" cy="156.4" r="1.88" fill="#22D3EE"/><circle cx="170.1" cy="156.4" r="1.88" fill="#22D3EE"/><circle cx="175.6" cy="156.4" r="1.88" fill="#22D3EE"/><circle cx="181.1" cy="156.4" r="1.88" fill="#22D3EE"/><circle cx="186.7" cy="156.4" r="1.88" fill="#22D3EE"/><circle cx="192.2" cy="156.4" r="1.88" fill="#22D3EE"/><circle cx="197.8" cy="156.4" r="1.88" fill="#22D3EE"/><circle cx="203.3" cy="156.4" r="1.88" fill="#22D3EE"/><circle cx="208.9" cy="156.4" r="1.88" fill="#22D3EE"/><circle cx="214.4" cy="156.4" r="1.88" fill="#22D3EE"/><circle cx="219.9" cy="156.4" r="1.88" fill="#22D3EE"/><circle cx="225.5" cy="156.4" r="1.88" fill="#22D3EE"/><circle cx="231.0" cy="156.4" r="1.88" fill="#22D3EE"/><circle cx="236.6" cy="156.4" r="1.88" fill="#22D3EE"/><circle cx="242.1" cy="156.4" r="1.88" fill="#22D3EE"/><circle cx="247.6" cy="156.4" r="1.88" fill="#22D3EE"/><circle cx="253.2" cy="156.4" r="1.88" fill="#22D3EE"/><circle cx="142.4" cy="161.9" r="1.88" fill="#22D3EE"/><circle cx="147.9" cy="161.9" r="1.88" fill="#22D3EE"/><circle cx="153.4" cy="161.9" r="1.88" fill="#22D3EE"/><circle cx="159.0" cy="161.9" r="1.88" fill="#22D3EE"/><circle cx="164.5" cy="161.9" r="1.88" fill="#22D3EE"/><circle cx="170.1" cy="161.9" r="1.88" fill="#22D3EE"/><circle cx="175.6" cy="161.9" r="1.88" fill="#22D3EE"/><circle cx="181.1" cy="161.9" r="1.88" fill="#22D3EE"/><circle cx="186.7" cy="161.9" r="1.88" fill="#22D3EE"/><circle cx="192.2" cy="161.9" r="1.88" fill="#22D3EE"/><circle cx="197.8" cy="161.9" r="1.88" fill="#22D3EE"/><circle cx="203.3" cy="161.9" r="1.88" fill="#22D3EE"/><circle cx="208.9" cy="161.9" r="1.88" fill="#22D3EE"/><circle cx="214.4" cy="161.9" r="1.88" fill="#22D3EE"/><circle cx="219.9" cy="161.9" r="1.88" fill="#22D3EE"/><circle cx="225.5" cy="161.9" r="1.88" fill="#22D3EE"/><circle cx="231.0" cy="161.9" r="1.88" fill="#22D3EE"/><circle cx="236.6" cy="161.9" r="1.88" fill="#22D3EE"/><circle cx="242.1" cy="161.9" r="1.88" fill="#22D3EE"/><circle cx="247.6" cy="161.9" r="1.88" fill="#22D3EE"/><circle cx="253.2" cy="161.9" r="1.88" fill="#22D3EE"/><circle cx="258.7" cy="161.9" r="1.88" fill="#22D3EE"/><circle cx="142.4" cy="167.4" r="1.88" fill="#22D3EE"/><circle cx="147.9" cy="167.4" r="1.88" fill="#22D3EE"/><circle cx="153.4" cy="167.4" r="1.88" fill="#22D3EE"/><circle cx="159.0" cy="167.4" r="1.88" fill="#22D3EE"/><circle cx="164.5" cy="167.4" r="1.88" fill="#22D3EE"/><circle cx="170.1" cy="167.4" r="1.88" fill="#22D3EE"/><circle cx="175.6" cy="167.4" r="1.88" fill="#22D3EE"/><circle cx="181.1" cy="167.4" r="1.88" fill="#22D3EE"/><circle cx="186.7" cy="167.4" r="1.88" fill="#22D3EE"/><circle cx="192.2" cy="167.4" r="1.88" fill="#22D3EE"/><circle cx="197.8" cy="167.4" r="1.88" fill="#22D3EE"/><circle cx="203.3" cy="167.4" r="1.88" fill="#22D3EE"/><circle cx="208.9" cy="167.4" r="1.88" fill="#22D3EE"/><circle cx="214.4" cy="167.4" r="1.88" fill="#22D3EE"/><circle cx="219.9" cy="167.4" r="1.88" fill="#22D3EE"/><circle cx="225.5" cy="167.4" r="1.88" fill="#22D3EE"/><circle cx="231.0" cy="167.4" r="1.88" fill="#22D3EE"/><circle cx="236.6" cy="167.4" r="1.88" fill="#22D3EE"/><circle cx="242.1" cy="167.4" r="1.88" fill="#22D3EE"/><circle cx="247.6" cy="167.4" r="1.88" fill="#22D3EE"/><circle cx="253.2" cy="167.4" r="1.88" fill="#22D3EE"/><circle cx="258.7" cy="167.4" r="1.88" fill="#22D3EE"/><circle cx="142.4" cy="173.0" r="1.88" fill="#22D3EE"/><circle cx="147.9" cy="173.0" r="1.88" fill="#22D3EE"/><circle cx="153.4" cy="173.0" r="1.88" fill="#22D3EE"/><circle cx="159.0" cy="173.0" r="1.88" fill="#22D3EE"/><circle cx="164.5" cy="173.0" r="1.88" fill="#22D3EE"/><circle cx="170.1" cy="173.0" r="1.88" fill="#22D3EE"/><circle cx="175.6" cy="173.0" r="1.88" fill="#22D3EE"/><circle cx="181.1" cy="173.0" r="1.88" fill="#22D3EE"/><circle cx="186.7" cy="173.0" r="1.88" fill="#22D3EE"/><circle cx="192.2" cy="173.0" r="1.88" fill="#22D3EE"/><circle cx="197.8" cy="173.0" r="1.88" fill="#22D3EE"/><circle cx="203.3" cy="173.0" r="1.88" fill="#22D3EE"/><circle cx="208.9" cy="173.0" r="1.88" fill="#22D3EE"/><circle cx="214.4" cy="173.0" r="1.88" fill="#22D3EE"/><circle cx="219.9" cy="173.0" r="1.88" fill="#22D3EE"/><circle cx="225.5" cy="173.0" r="1.88" fill="#22D3EE"/><circle cx="231.0" cy="173.0" r="1.88" fill="#22D3EE"/><circle cx="236.6" cy="173.0" r="1.88" fill="#22D3EE"/><circle cx="242.1" cy="173.0" r="1.88" fill="#22D3EE"/><circle cx="247.6" cy="173.0" r="1.88" fill="#22D3EE"/><circle cx="253.2" cy="173.0" r="1.88" fill="#22D3EE"/><circle cx="258.7" cy="173.0" r="1.88" fill="#22D3EE"/><circle cx="98.0" cy="178.5" r="1.88" fill="#22D3EE"/><circle cx="136.8" cy="178.5" r="1.88" fill="#22D3EE"/><circle cx="142.4" cy="178.5" r="1.88" fill="#22D3EE"/><circle cx="147.9" cy="178.5" r="1.88" fill="#22D3EE"/><circle cx="153.4" cy="178.5" r="1.88" fill="#22D3EE"/><circle cx="159.0" cy="178.5" r="1.88" fill="#22D3EE"/><circle cx="164.5" cy="178.5" r="1.88" fill="#22D3EE"/><circle cx="170.1" cy="178.5" r="1.88" fill="#22D3EE"/><circle cx="175.6" cy="178.5" r="1.88" fill="#22D3EE"/><circle cx="181.1" cy="178.5" r="1.88" fill="#22D3EE"/><circle cx="186.7" cy="178.5" r="1.88" fill="#22D3EE"/><circle cx="192.2" cy="178.5" r="1.88" fill="#22D3EE"/><circle cx="197.8" cy="178.5" r="1.88" fill="#22D3EE"/><circle cx="203.3" cy="178.5" r="1.88" fill="#22D3EE"/><circle cx="208.9" cy="178.5" r="1.88" fill="#22D3EE"/><circle cx="214.4" cy="178.5" r="1.88" fill="#22D3EE"/><circle cx="219.9" cy="178.5" r="1.88" fill="#22D3EE"/><circle cx="225.5" cy="178.5" r="1.88" fill="#22D3EE"/><circle cx="231.0" cy="178.5" r="1.88" fill="#22D3EE"/><circle cx="236.6" cy="178.5" r="1.88" fill="#22D3EE"/><circle cx="242.1" cy="178.5" r="1.88" fill="#22D3EE"/><circle cx="247.6" cy="178.5" r="1.88" fill="#22D3EE"/><circle cx="253.2" cy="178.5" r="1.88" fill="#22D3EE"/><circle cx="258.7" cy="178.5" r="1.88" fill="#22D3EE"/><circle cx="264.3" cy="178.5" r="1.88" fill="#22D3EE"/><circle cx="92.5" cy="184.1" r="1.88" fill="#22D3EE"/><circle cx="98.0" cy="184.1" r="1.88" fill="#22D3EE"/><circle cx="103.6" cy="184.1" r="1.88" fill="#22D3EE"/><circle cx="109.1" cy="184.1" r="1.88" fill="#22D3EE"/><circle cx="136.8" cy="184.1" r="1.88" fill="#22D3EE"/><circle cx="142.4" cy="184.1" r="1.88" fill="#22D3EE"/><circle cx="147.9" cy="184.1" r="1.88" fill="#22D3EE"/><circle cx="153.4" cy="184.1" r="1.88" fill="#22D3EE"/><circle cx="159.0" cy="184.1" r="1.88" fill="#22D3EE"/><circle cx="164.5" cy="184.1" r="1.88" fill="#22D3EE"/><circle cx="170.1" cy="184.1" r="1.88" fill="#22D3EE"/><circle cx="175.6" cy="184.1" r="1.88" fill="#22D3EE"/><circle cx="181.1" cy="184.1" r="1.88" fill="#22D3EE"/><circle cx="186.7" cy="184.1" r="1.88" fill="#22D3EE"/><circle cx="192.2" cy="184.1" r="1.88" fill="#22D3EE"/><circle cx="197.8" cy="184.1" r="1.88" fill="#22D3EE"/><circle cx="203.3" cy="184.1" r="1.88" fill="#22D3EE"/><circle cx="208.9" cy="184.1" r="1.88" fill="#22D3EE"/><circle cx="214.4" cy="184.1" r="1.88" fill="#22D3EE"/><circle cx="219.9" cy="184.1" r="1.88" fill="#22D3EE"/><circle cx="225.5" cy="184.1" r="1.88" fill="#22D3EE"/><circle cx="231.0" cy="184.1" r="1.88" fill="#22D3EE"/><circle cx="236.6" cy="184.1" r="1.88" fill="#22D3EE"/><circle cx="242.1" cy="184.1" r="1.88" fill="#22D3EE"/><circle cx="247.6" cy="184.1" r="1.88" fill="#22D3EE"/><circle cx="253.2" cy="184.1" r="1.88" fill="#22D3EE"/><circle cx="258.7" cy="184.1" r="1.88" fill="#22D3EE"/><circle cx="264.3" cy="184.1" r="1.88" fill="#22D3EE"/><circle cx="92.5" cy="189.6" r="1.88" fill="#22D3EE"/><circle cx="98.0" cy="189.6" r="1.88" fill="#22D3EE"/><circle cx="103.6" cy="189.6" r="1.88" fill="#22D3EE"/><circle cx="109.1" cy="189.6" r="1.88" fill="#22D3EE"/><circle cx="136.8" cy="189.6" r="1.88" fill="#22D3EE"/><circle cx="142.4" cy="189.6" r="1.88" fill="#22D3EE"/><circle cx="147.9" cy="189.6" r="1.88" fill="#22D3EE"/><circle cx="153.4" cy="189.6" r="1.88" fill="#22D3EE"/><circle cx="159.0" cy="189.6" r="1.88" fill="#22D3EE"/><circle cx="164.5" cy="189.6" r="1.88" fill="#22D3EE"/><circle cx="170.1" cy="189.6" r="1.88" fill="#22D3EE"/><circle cx="175.6" cy="189.6" r="1.88" fill="#22D3EE"/><circle cx="181.1" cy="189.6" r="1.88" fill="#22D3EE"/><circle cx="186.7" cy="189.6" r="1.88" fill="#22D3EE"/><circle cx="192.2" cy="189.6" r="1.88" fill="#22D3EE"/><circle cx="197.8" cy="189.6" r="1.88" fill="#22D3EE"/><circle cx="203.3" cy="189.6" r="1.88" fill="#22D3EE"/><circle cx="208.9" cy="189.6" r="1.88" fill="#22D3EE"/><circle cx="214.4" cy="189.6" r="1.88" fill="#22D3EE"/><circle cx="219.9" cy="189.6" r="1.88" fill="#22D3EE"/><circle cx="225.5" cy="189.6" r="1.88" fill="#22D3EE"/><circle cx="231.0" cy="189.6" r="1.88" fill="#22D3EE"/><circle cx="236.6" cy="189.6" r="1.88" fill="#22D3EE"/><circle cx="242.1" cy="189.6" r="1.88" fill="#22D3EE"/><circle cx="247.6" cy="189.6" r="1.88" fill="#22D3EE"/><circle cx="253.2" cy="189.6" r="1.88" fill="#22D3EE"/><circle cx="258.7" cy="189.6" r="1.88" fill="#22D3EE"/><circle cx="264.3" cy="189.6" r="1.88" fill="#22D3EE"/><circle cx="86.9" cy="195.1" r="1.88" fill="#22D3EE"/><circle cx="92.5" cy="195.1" r="1.88" fill="#22D3EE"/><circle cx="98.0" cy="195.1" r="1.88" fill="#22D3EE"/><circle cx="103.6" cy="195.1" r="1.88" fill="#22D3EE"/><circle cx="109.1" cy="195.1" r="1.88" fill="#22D3EE"/><circle cx="136.8" cy="195.1" r="1.88" fill="#22D3EE"/><circle cx="142.4" cy="195.1" r="1.88" fill="#22D3EE"/><circle cx="147.9" cy="195.1" r="1.88" fill="#22D3EE"/><circle cx="153.4" cy="195.1" r="1.88" fill="#22D3EE"/><circle cx="159.0" cy="195.1" r="1.88" fill="#22D3EE"/><circle cx="164.5" cy="195.1" r="1.88" fill="#22D3EE"/><circle cx="170.1" cy="195.1" r="1.88" fill="#22D3EE"/><circle cx="175.6" cy="195.1" r="1.88" fill="#22D3EE"/><circle cx="181.1" cy="195.1" r="1.88" fill="#22D3EE"/><circle cx="186.7" cy="195.1" r="1.88" fill="#22D3EE"/><circle cx="192.2" cy="195.1" r="1.88" fill="#22D3EE"/><circle cx="197.8" cy="195.1" r="1.88" fill="#22D3EE"/><circle cx="203.3" cy="195.1" r="1.88" fill="#22D3EE"/><circle cx="208.9" cy="195.1" r="1.88" fill="#22D3EE"/><circle cx="214.4" cy="195.1" r="1.88" fill="#22D3EE"/><circle cx="219.9" cy="195.1" r="1.88" fill="#22D3EE"/><circle cx="225.5" cy="195.1" r="1.88" fill="#22D3EE"/><circle cx="231.0" cy="195.1" r="1.88" fill="#22D3EE"/><circle cx="236.6" cy="195.1" r="1.88" fill="#22D3EE"/><circle cx="242.1" cy="195.1" r="1.88" fill="#22D3EE"/><circle cx="247.6" cy="195.1" r="1.88" fill="#22D3EE"/><circle cx="253.2" cy="195.1" r="1.88" fill="#22D3EE"/><circle cx="258.7" cy="195.1" r="1.88" fill="#22D3EE"/><circle cx="264.3" cy="195.1" r="1.88" fill="#22D3EE"/><circle cx="86.9" cy="200.7" r="1.88" fill="#22D3EE"/><circle cx="92.5" cy="200.7" r="1.88" fill="#22D3EE"/><circle cx="98.0" cy="200.7" r="1.88" fill="#22D3EE"/><circle cx="103.6" cy="200.7" r="1.88" fill="#22D3EE"/><circle cx="109.1" cy="200.7" r="1.88" fill="#22D3EE"/><circle cx="136.8" cy="200.7" r="1.88" fill="#22D3EE"/><circle cx="142.4" cy="200.7" r="1.88" fill="#22D3EE"/><circle cx="147.9" cy="200.7" r="1.88" fill="#22D3EE"/><circle cx="153.4" cy="200.7" r="1.88" fill="#22D3EE"/><circle cx="159.0" cy="200.7" r="1.88" fill="#22D3EE"/><circle cx="164.5" cy="200.7" r="1.88" fill="#22D3EE"/><circle cx="170.1" cy="200.7" r="1.88" fill="#22D3EE"/><circle cx="175.6" cy="200.7" r="1.88" fill="#22D3EE"/><circle cx="181.1" cy="200.7" r="1.88" fill="#22D3EE"/><circle cx="186.7" cy="200.7" r="1.88" fill="#22D3EE"/><circle cx="192.2" cy="200.7" r="1.88" fill="#22D3EE"/><circle cx="197.8" cy="200.7" r="1.88" fill="#22D3EE"/><circle cx="203.3" cy="200.7" r="1.88" fill="#22D3EE"/><circle cx="208.9" cy="200.7" r="1.88" fill="#22D3EE"/><circle cx="214.4" cy="200.7" r="1.88" fill="#22D3EE"/><circle cx="219.9" cy="200.7" r="1.88" fill="#22D3EE"/><circle cx="225.5" cy="200.7" r="1.88" fill="#22D3EE"/><circle cx="231.0" cy="200.7" r="1.88" fill="#22D3EE"/><circle cx="236.6" cy="200.7" r="1.88" fill="#22D3EE"/><circle cx="242.1" cy="200.7" r="1.88" fill="#22D3EE"/><circle cx="247.6" cy="200.7" r="1.88" fill="#22D3EE"/><circle cx="253.2" cy="200.7" r="1.88" fill="#22D3EE"/><circle cx="258.7" cy="200.7" r="1.88" fill="#22D3EE"/><circle cx="86.9" cy="206.2" r="1.88" fill="#22D3EE"/><circle cx="92.5" cy="206.2" r="1.88" fill="#22D3EE"/><circle cx="98.0" cy="206.2" r="1.88" fill="#22D3EE"/><circle cx="103.6" cy="206.2" r="1.88" fill="#22D3EE"/><circle cx="142.4" cy="206.2" r="1.88" fill="#22D3EE"/><circle cx="147.9" cy="206.2" r="1.88" fill="#22D3EE"/><circle cx="153.4" cy="206.2" r="1.88" fill="#22D3EE"/><circle cx="159.0" cy="206.2" r="1.88" fill="#22D3EE"/><circle cx="164.5" cy="206.2" r="1.88" fill="#22D3EE"/><circle cx="170.1" cy="206.2" r="1.88" fill="#22D3EE"/><circle cx="175.6" cy="206.2" r="1.88" fill="#22D3EE"/><circle cx="181.1" cy="206.2" r="1.88" fill="#22D3EE"/><circle cx="186.7" cy="206.2" r="1.88" fill="#22D3EE"/><circle cx="192.2" cy="206.2" r="1.88" fill="#22D3EE"/><circle cx="197.8" cy="206.2" r="1.88" fill="#22D3EE"/><circle cx="203.3" cy="206.2" r="1.88" fill="#22D3EE"/><circle cx="208.9" cy="206.2" r="1.88" fill="#22D3EE"/><circle cx="214.4" cy="206.2" r="1.88" fill="#22D3EE"/><circle cx="219.9" cy="206.2" r="1.88" fill="#22D3EE"/><circle cx="225.5" cy="206.2" r="1.88" fill="#22D3EE"/><circle cx="231.0" cy="206.2" r="1.88" fill="#22D3EE"/><circle cx="236.6" cy="206.2" r="1.88" fill="#22D3EE"/><circle cx="242.1" cy="206.2" r="1.88" fill="#22D3EE"/><circle cx="247.6" cy="206.2" r="1.88" fill="#22D3EE"/><circle cx="253.2" cy="206.2" r="1.88" fill="#22D3EE"/><circle cx="258.7" cy="206.2" r="1.88" fill="#22D3EE"/><circle cx="86.9" cy="211.8" r="1.88" fill="#22D3EE"/><circle cx="92.5" cy="211.8" r="1.88" fill="#22D3EE"/><circle cx="98.0" cy="211.8" r="1.88" fill="#22D3EE"/><circle cx="103.6" cy="211.8" r="1.88" fill="#22D3EE"/><circle cx="142.4" cy="211.8" r="1.88" fill="#22D3EE"/><circle cx="147.9" cy="211.8" r="1.88" fill="#22D3EE"/><circle cx="153.4" cy="211.8" r="1.88" fill="#22D3EE"/><circle cx="159.0" cy="211.8" r="1.88" fill="#22D3EE"/><circle cx="164.5" cy="211.8" r="1.88" fill="#22D3EE"/><circle cx="170.1" cy="211.8" r="1.88" fill="#22D3EE"/><circle cx="175.6" cy="211.8" r="1.88" fill="#22D3EE"/><circle cx="181.1" cy="211.8" r="1.88" fill="#22D3EE"/><circle cx="186.7" cy="211.8" r="1.88" fill="#22D3EE"/><circle cx="192.2" cy="211.8" r="1.88" fill="#22D3EE"/><circle cx="197.8" cy="211.8" r="1.88" fill="#22D3EE"/><circle cx="203.3" cy="211.8" r="1.88" fill="#22D3EE"/><circle cx="208.9" cy="211.8" r="1.88" fill="#22D3EE"/><circle cx="214.4" cy="211.8" r="1.88" fill="#22D3EE"/><circle cx="219.9" cy="211.8" r="1.88" fill="#22D3EE"/><circle cx="225.5" cy="211.8" r="1.88" fill="#22D3EE"/><circle cx="231.0" cy="211.8" r="1.88" fill="#22D3EE"/><circle cx="236.6" cy="211.8" r="1.88" fill="#22D3EE"/><circle cx="242.1" cy="211.8" r="1.88" fill="#22D3EE"/><circle cx="247.6" cy="211.8" r="1.88" fill="#22D3EE"/><circle cx="253.2" cy="211.8" r="1.88" fill="#22D3EE"/><circle cx="258.7" cy="211.8" r="1.88" fill="#22D3EE"/><circle cx="86.9" cy="217.3" r="1.88" fill="#22D3EE"/><circle cx="92.5" cy="217.3" r="1.88" fill="#22D3EE"/><circle cx="98.0" cy="217.3" r="1.88" fill="#22D3EE"/><circle cx="103.6" cy="217.3" r="1.88" fill="#22D3EE"/><circle cx="109.1" cy="217.3" r="1.88" fill="#22D3EE"/><circle cx="147.9" cy="217.3" r="1.88" fill="#22D3EE"/><circle cx="153.4" cy="217.3" r="1.88" fill="#22D3EE"/><circle cx="159.0" cy="217.3" r="1.88" fill="#22D3EE"/><circle cx="164.5" cy="217.3" r="1.88" fill="#22D3EE"/><circle cx="170.1" cy="217.3" r="1.88" fill="#22D3EE"/><circle cx="175.6" cy="217.3" r="1.88" fill="#22D3EE"/><circle cx="181.1" cy="217.3" r="1.88" fill="#22D3EE"/><circle cx="186.7" cy="217.3" r="1.88" fill="#22D3EE"/><circle cx="192.2" cy="217.3" r="1.88" fill="#22D3EE"/><circle cx="197.8" cy="217.3" r="1.88" fill="#22D3EE"/><circle cx="203.3" cy="217.3" r="1.88" fill="#22D3EE"/><circle cx="208.9" cy="217.3" r="1.88" fill="#22D3EE"/><circle cx="214.4" cy="217.3" r="1.88" fill="#22D3EE"/><circle cx="219.9" cy="217.3" r="1.88" fill="#22D3EE"/><circle cx="225.5" cy="217.3" r="1.88" fill="#22D3EE"/><circle cx="231.0" cy="217.3" r="1.88" fill="#22D3EE"/><circle cx="236.6" cy="217.3" r="1.88" fill="#22D3EE"/><circle cx="242.1" cy="217.3" r="1.88" fill="#22D3EE"/><circle cx="247.6" cy="217.3" r="1.88" fill="#22D3EE"/><circle cx="253.2" cy="217.3" r="1.88" fill="#22D3EE"/><circle cx="86.9" cy="222.9" r="1.88" fill="#22D3EE"/><circle cx="92.5" cy="222.9" r="1.88" fill="#22D3EE"/><circle cx="98.0" cy="222.9" r="1.88" fill="#22D3EE"/><circle cx="103.6" cy="222.9" r="1.88" fill="#22D3EE"/><circle cx="109.1" cy="222.9" r="1.88" fill="#22D3EE"/><circle cx="147.9" cy="222.9" r="1.88" fill="#22D3EE"/><circle cx="153.4" cy="222.9" r="1.88" fill="#22D3EE"/><circle cx="159.0" cy="222.9" r="1.88" fill="#22D3EE"/><circle cx="164.5" cy="222.9" r="1.88" fill="#22D3EE"/><circle cx="170.1" cy="222.9" r="1.88" fill="#22D3EE"/><circle cx="175.6" cy="222.9" r="1.88" fill="#22D3EE"/><circle cx="181.1" cy="222.9" r="1.88" fill="#22D3EE"/><circle cx="186.7" cy="222.9" r="1.88" fill="#22D3EE"/><circle cx="192.2" cy="222.9" r="1.88" fill="#22D3EE"/><circle cx="197.8" cy="222.9" r="1.88" fill="#22D3EE"/><circle cx="203.3" cy="222.9" r="1.88" fill="#22D3EE"/><circle cx="208.9" cy="222.9" r="1.88" fill="#22D3EE"/><circle cx="214.4" cy="222.9" r="1.88" fill="#22D3EE"/><circle cx="219.9" cy="222.9" r="1.88" fill="#22D3EE"/><circle cx="225.5" cy="222.9" r="1.88" fill="#22D3EE"/><circle cx="231.0" cy="222.9" r="1.88" fill="#22D3EE"/><circle cx="236.6" cy="222.9" r="1.88" fill="#22D3EE"/><circle cx="242.1" cy="222.9" r="1.88" fill="#22D3EE"/><circle cx="247.6" cy="222.9" r="1.88" fill="#22D3EE"/><circle cx="92.5" cy="228.4" r="1.88" fill="#22D3EE"/><circle cx="98.0" cy="228.4" r="1.88" fill="#22D3EE"/><circle cx="103.6" cy="228.4" r="1.88" fill="#22D3EE"/><circle cx="109.1" cy="228.4" r="1.88" fill="#22D3EE"/><circle cx="114.6" cy="228.4" r="1.88" fill="#22D3EE"/><circle cx="153.4" cy="228.4" r="1.88" fill="#22D3EE"/><circle cx="159.0" cy="228.4" r="1.88" fill="#22D3EE"/><circle cx="164.5" cy="228.4" r="1.88" fill="#22D3EE"/><circle cx="170.1" cy="228.4" r="1.88" fill="#22D3EE"/><circle cx="175.6" cy="228.4" r="1.88" fill="#22D3EE"/><circle cx="181.1" cy="228.4" r="1.88" fill="#22D3EE"/><circle cx="186.7" cy="228.4" r="1.88" fill="#22D3EE"/><circle cx="192.2" cy="228.4" r="1.88" fill="#22D3EE"/><circle cx="197.8" cy="228.4" r="1.88" fill="#22D3EE"/><circle cx="203.3" cy="228.4" r="1.88" fill="#22D3EE"/><circle cx="208.9" cy="228.4" r="1.88" fill="#22D3EE"/><circle cx="214.4" cy="228.4" r="1.88" fill="#22D3EE"/><circle cx="219.9" cy="228.4" r="1.88" fill="#22D3EE"/><circle cx="225.5" cy="228.4" r="1.88" fill="#22D3EE"/><circle cx="231.0" cy="228.4" r="1.88" fill="#22D3EE"/><circle cx="236.6" cy="228.4" r="1.88" fill="#22D3EE"/><circle cx="242.1" cy="228.4" r="1.88" fill="#22D3EE"/><circle cx="247.6" cy="228.4" r="1.88" fill="#22D3EE"/><circle cx="98.0" cy="233.9" r="1.88" fill="#22D3EE"/><circle cx="103.6" cy="233.9" r="1.88" fill="#22D3EE"/><circle cx="109.1" cy="233.9" r="1.88" fill="#22D3EE"/><circle cx="114.6" cy="233.9" r="1.88" fill="#22D3EE"/><circle cx="120.2" cy="233.9" r="1.88" fill="#22D3EE"/><circle cx="159.0" cy="233.9" r="1.88" fill="#22D3EE"/><circle cx="164.5" cy="233.9" r="1.88" fill="#22D3EE"/><circle cx="170.1" cy="233.9" r="1.88" fill="#22D3EE"/><circle cx="175.6" cy="233.9" r="1.88" fill="#22D3EE"/><circle cx="181.1" cy="233.9" r="1.88" fill="#22D3EE"/><circle cx="186.7" cy="233.9" r="1.88" fill="#22D3EE"/><circle cx="192.2" cy="233.9" r="1.88" fill="#22D3EE"/><circle cx="197.8" cy="233.9" r="1.88" fill="#22D3EE"/><circle cx="203.3" cy="233.9" r="1.88" fill="#22D3EE"/><circle cx="208.9" cy="233.9" r="1.88" fill="#22D3EE"/><circle cx="214.4" cy="233.9" r="1.88" fill="#22D3EE"/><circle cx="219.9" cy="233.9" r="1.88" fill="#22D3EE"/><circle cx="225.5" cy="233.9" r="1.88" fill="#22D3EE"/><circle cx="231.0" cy="233.9" r="1.88" fill="#22D3EE"/><circle cx="236.6" cy="233.9" r="1.88" fill="#22D3EE"/><circle cx="242.1" cy="233.9" r="1.88" fill="#22D3EE"/><circle cx="98.0" cy="239.5" r="1.88" fill="#22D3EE"/><circle cx="103.6" cy="239.5" r="1.88" fill="#22D3EE"/><circle cx="109.1" cy="239.5" r="1.88" fill="#22D3EE"/><circle cx="114.6" cy="239.5" r="1.88" fill="#22D3EE"/><circle cx="120.2" cy="239.5" r="1.88" fill="#22D3EE"/><circle cx="125.7" cy="239.5" r="1.88" fill="#22D3EE"/><circle cx="159.0" cy="239.5" r="1.88" fill="#22D3EE"/><circle cx="164.5" cy="239.5" r="1.88" fill="#22D3EE"/><circle cx="170.1" cy="239.5" r="1.88" fill="#22D3EE"/><circle cx="175.6" cy="239.5" r="1.88" fill="#22D3EE"/><circle cx="181.1" cy="239.5" r="1.88" fill="#22D3EE"/><circle cx="186.7" cy="239.5" r="1.88" fill="#22D3EE"/><circle cx="192.2" cy="239.5" r="1.88" fill="#22D3EE"/><circle cx="197.8" cy="239.5" r="1.88" fill="#22D3EE"/><circle cx="203.3" cy="239.5" r="1.88" fill="#22D3EE"/><circle cx="208.9" cy="239.5" r="1.88" fill="#22D3EE"/><circle cx="214.4" cy="239.5" r="1.88" fill="#22D3EE"/><circle cx="219.9" cy="239.5" r="1.88" fill="#22D3EE"/><circle cx="225.5" cy="239.5" r="1.88" fill="#22D3EE"/><circle cx="231.0" cy="239.5" r="1.88" fill="#22D3EE"/><circle cx="236.6" cy="239.5" r="1.88" fill="#22D3EE"/><circle cx="242.1" cy="239.5" r="1.88" fill="#22D3EE"/><circle cx="103.6" cy="245.0" r="1.88" fill="#22D3EE"/><circle cx="109.1" cy="245.0" r="1.88" fill="#22D3EE"/><circle cx="114.6" cy="245.0" r="1.88" fill="#22D3EE"/><circle cx="120.2" cy="245.0" r="1.88" fill="#22D3EE"/><circle cx="125.7" cy="245.0" r="1.88" fill="#22D3EE"/><circle cx="131.3" cy="245.0" r="1.88" fill="#22D3EE"/><circle cx="153.4" cy="245.0" r="1.88" fill="#22D3EE"/><circle cx="159.0" cy="245.0" r="1.88" fill="#22D3EE"/><circle cx="164.5" cy="245.0" r="1.88" fill="#22D3EE"/><circle cx="170.1" cy="245.0" r="1.88" fill="#22D3EE"/><circle cx="175.6" cy="245.0" r="1.88" fill="#22D3EE"/><circle cx="181.1" cy="245.0" r="1.88" fill="#22D3EE"/><circle cx="186.7" cy="245.0" r="1.88" fill="#22D3EE"/><circle cx="192.2" cy="245.0" r="1.88" fill="#22D3EE"/><circle cx="197.8" cy="245.0" r="1.88" fill="#22D3EE"/><circle cx="203.3" cy="245.0" r="1.88" fill="#22D3EE"/><circle cx="208.9" cy="245.0" r="1.88" fill="#22D3EE"/><circle cx="214.4" cy="245.0" r="1.88" fill="#22D3EE"/><circle cx="219.9" cy="245.0" r="1.88" fill="#22D3EE"/><circle cx="225.5" cy="245.0" r="1.88" fill="#22D3EE"/><circle cx="231.0" cy="245.0" r="1.88" fill="#22D3EE"/><circle cx="236.6" cy="245.0" r="1.88" fill="#22D3EE"/><circle cx="242.1" cy="245.0" r="1.88" fill="#22D3EE"/><circle cx="247.6" cy="245.0" r="1.88" fill="#22D3EE"/><circle cx="109.1" cy="250.6" r="1.88" fill="#22D3EE"/><circle cx="114.6" cy="250.6" r="1.88" fill="#22D3EE"/><circle cx="120.2" cy="250.6" r="1.88" fill="#22D3EE"/><circle cx="125.7" cy="250.6" r="1.88" fill="#22D3EE"/><circle cx="131.3" cy="250.6" r="1.88" fill="#22D3EE"/><circle cx="136.8" cy="250.6" r="1.88" fill="#22D3EE"/><circle cx="142.4" cy="250.6" r="1.88" fill="#22D3EE"/><circle cx="147.9" cy="250.6" r="1.88" fill="#22D3EE"/><circle cx="153.4" cy="250.6" r="1.88" fill="#22D3EE"/><circle cx="159.0" cy="250.6" r="1.88" fill="#22D3EE"/><circle cx="164.5" cy="250.6" r="1.88" fill="#22D3EE"/><circle cx="170.1" cy="250.6" r="1.88" fill="#22D3EE"/><circle cx="175.6" cy="250.6" r="1.88" fill="#22D3EE"/><circle cx="181.1" cy="250.6" r="1.88" fill="#22D3EE"/><circle cx="186.7" cy="250.6" r="1.88" fill="#22D3EE"/><circle cx="192.2" cy="250.6" r="1.88" fill="#22D3EE"/><circle cx="197.8" cy="250.6" r="1.88" fill="#22D3EE"/><circle cx="203.3" cy="250.6" r="1.88" fill="#22D3EE"/><circle cx="208.9" cy="250.6" r="1.88" fill="#22D3EE"/><circle cx="214.4" cy="250.6" r="1.88" fill="#22D3EE"/><circle cx="219.9" cy="250.6" r="1.88" fill="#22D3EE"/><circle cx="225.5" cy="250.6" r="1.88" fill="#22D3EE"/><circle cx="231.0" cy="250.6" r="1.88" fill="#22D3EE"/><circle cx="236.6" cy="250.6" r="1.88" fill="#22D3EE"/><circle cx="242.1" cy="250.6" r="1.88" fill="#22D3EE"/><circle cx="247.6" cy="250.6" r="1.88" fill="#22D3EE"/><circle cx="114.6" cy="256.1" r="1.88" fill="#22D3EE"/><circle cx="120.2" cy="256.1" r="1.88" fill="#22D3EE"/><circle cx="125.7" cy="256.1" r="1.88" fill="#22D3EE"/><circle cx="131.3" cy="256.1" r="1.88" fill="#22D3EE"/><circle cx="136.8" cy="256.1" r="1.88" fill="#22D3EE"/><circle cx="142.4" cy="256.1" r="1.88" fill="#22D3EE"/><circle cx="147.9" cy="256.1" r="1.88" fill="#22D3EE"/><circle cx="153.4" cy="256.1" r="1.88" fill="#22D3EE"/><circle cx="159.0" cy="256.1" r="1.88" fill="#22D3EE"/><circle cx="164.5" cy="256.1" r="1.88" fill="#22D3EE"/><circle cx="170.1" cy="256.1" r="1.88" fill="#22D3EE"/><circle cx="175.6" cy="256.1" r="1.88" fill="#22D3EE"/><circle cx="181.1" cy="256.1" r="1.88" fill="#22D3EE"/><circle cx="186.7" cy="256.1" r="1.88" fill="#22D3EE"/><circle cx="192.2" cy="256.1" r="1.88" fill="#22D3EE"/><circle cx="197.8" cy="256.1" r="1.88" fill="#22D3EE"/><circle cx="203.3" cy="256.1" r="1.88" fill="#22D3EE"/><circle cx="208.9" cy="256.1" r="1.88" fill="#22D3EE"/><circle cx="214.4" cy="256.1" r="1.88" fill="#22D3EE"/><circle cx="219.9" cy="256.1" r="1.88" fill="#22D3EE"/><circle cx="225.5" cy="256.1" r="1.88" fill="#22D3EE"/><circle cx="231.0" cy="256.1" r="1.88" fill="#22D3EE"/><circle cx="236.6" cy="256.1" r="1.88" fill="#22D3EE"/><circle cx="242.1" cy="256.1" r="1.88" fill="#22D3EE"/><circle cx="247.6" cy="256.1" r="1.88" fill="#22D3EE"/><circle cx="120.2" cy="261.6" r="1.88" fill="#22D3EE"/><circle cx="125.7" cy="261.6" r="1.88" fill="#22D3EE"/><circle cx="131.3" cy="261.6" r="1.88" fill="#22D3EE"/><circle cx="136.8" cy="261.6" r="1.88" fill="#22D3EE"/><circle cx="142.4" cy="261.6" r="1.88" fill="#22D3EE"/><circle cx="147.9" cy="261.6" r="1.88" fill="#22D3EE"/><circle cx="153.4" cy="261.6" r="1.88" fill="#22D3EE"/><circle cx="159.0" cy="261.6" r="1.88" fill="#22D3EE"/><circle cx="164.5" cy="261.6" r="1.88" fill="#22D3EE"/><circle cx="170.1" cy="261.6" r="1.88" fill="#22D3EE"/><circle cx="175.6" cy="261.6" r="1.88" fill="#22D3EE"/><circle cx="181.1" cy="261.6" r="1.88" fill="#22D3EE"/><circle cx="186.7" cy="261.6" r="1.88" fill="#22D3EE"/><circle cx="192.2" cy="261.6" r="1.88" fill="#22D3EE"/><circle cx="197.8" cy="261.6" r="1.88" fill="#22D3EE"/><circle cx="203.3" cy="261.6" r="1.88" fill="#22D3EE"/><circle cx="208.9" cy="261.6" r="1.88" fill="#22D3EE"/><circle cx="214.4" cy="261.6" r="1.88" fill="#22D3EE"/><circle cx="219.9" cy="261.6" r="1.88" fill="#22D3EE"/><circle cx="225.5" cy="261.6" r="1.88" fill="#22D3EE"/><circle cx="231.0" cy="261.6" r="1.88" fill="#22D3EE"/><circle cx="236.6" cy="261.6" r="1.88" fill="#22D3EE"/><circle cx="242.1" cy="261.6" r="1.88" fill="#22D3EE"/><circle cx="247.6" cy="261.6" r="1.88" fill="#22D3EE"/><circle cx="125.7" cy="267.2" r="1.88" fill="#22D3EE"/><circle cx="131.3" cy="267.2" r="1.88" fill="#22D3EE"/><circle cx="136.8" cy="267.2" r="1.88" fill="#22D3EE"/><circle cx="142.4" cy="267.2" r="1.88" fill="#22D3EE"/><circle cx="147.9" cy="267.2" r="1.88" fill="#22D3EE"/><circle cx="153.4" cy="267.2" r="1.88" fill="#22D3EE"/><circle cx="159.0" cy="267.2" r="1.88" fill="#22D3EE"/><circle cx="164.5" cy="267.2" r="1.88" fill="#22D3EE"/><circle cx="170.1" cy="267.2" r="1.88" fill="#22D3EE"/><circle cx="175.6" cy="267.2" r="1.88" fill="#22D3EE"/><circle cx="181.1" cy="267.2" r="1.88" fill="#22D3EE"/><circle cx="186.7" cy="267.2" r="1.88" fill="#22D3EE"/><circle cx="192.2" cy="267.2" r="1.88" fill="#22D3EE"/><circle cx="197.8" cy="267.2" r="1.88" fill="#22D3EE"/><circle cx="203.3" cy="267.2" r="1.88" fill="#22D3EE"/><circle cx="208.9" cy="267.2" r="1.88" fill="#22D3EE"/><circle cx="214.4" cy="267.2" r="1.88" fill="#22D3EE"/><circle cx="219.9" cy="267.2" r="1.88" fill="#22D3EE"/><circle cx="225.5" cy="267.2" r="1.88" fill="#22D3EE"/><circle cx="231.0" cy="267.2" r="1.88" fill="#22D3EE"/><circle cx="236.6" cy="267.2" r="1.88" fill="#22D3EE"/><circle cx="242.1" cy="267.2" r="1.88" fill="#22D3EE"/><circle cx="247.6" cy="267.2" r="1.88" fill="#22D3EE"/><circle cx="125.7" cy="272.7" r="1.88" fill="#22D3EE"/><circle cx="131.3" cy="272.7" r="1.88" fill="#22D3EE"/><circle cx="136.8" cy="272.7" r="1.88" fill="#22D3EE"/><circle cx="142.4" cy="272.7" r="1.88" fill="#22D3EE"/><circle cx="147.9" cy="272.7" r="1.88" fill="#22D3EE"/><circle cx="153.4" cy="272.7" r="1.88" fill="#22D3EE"/><circle cx="159.0" cy="272.7" r="1.88" fill="#22D3EE"/><circle cx="164.5" cy="272.7" r="1.88" fill="#22D3EE"/><circle cx="170.1" cy="272.7" r="1.88" fill="#22D3EE"/><circle cx="175.6" cy="272.7" r="1.88" fill="#22D3EE"/><circle cx="181.1" cy="272.7" r="1.88" fill="#22D3EE"/><circle cx="186.7" cy="272.7" r="1.88" fill="#22D3EE"/><circle cx="192.2" cy="272.7" r="1.88" fill="#22D3EE"/><circle cx="197.8" cy="272.7" r="1.88" fill="#22D3EE"/><circle cx="203.3" cy="272.7" r="1.88" fill="#22D3EE"/><circle cx="208.9" cy="272.7" r="1.88" fill="#22D3EE"/><circle cx="214.4" cy="272.7" r="1.88" fill="#22D3EE"/><circle cx="219.9" cy="272.7" r="1.88" fill="#22D3EE"/><circle cx="225.5" cy="272.7" r="1.88" fill="#22D3EE"/><circle cx="231.0" cy="272.7" r="1.88" fill="#22D3EE"/><circle cx="236.6" cy="272.7" r="1.88" fill="#22D3EE"/><circle cx="242.1" cy="272.7" r="1.88" fill="#22D3EE"/><circle cx="247.6" cy="272.7" r="1.88" fill="#22D3EE"/><circle cx="120.2" cy="278.3" r="1.88" fill="#22D3EE"/><circle cx="125.7" cy="278.3" r="1.88" fill="#22D3EE"/><circle cx="131.3" cy="278.3" r="1.88" fill="#22D3EE"/><circle cx="136.8" cy="278.3" r="1.88" fill="#22D3EE"/><circle cx="142.4" cy="278.3" r="1.88" fill="#22D3EE"/><circle cx="147.9" cy="278.3" r="1.88" fill="#22D3EE"/><circle cx="153.4" cy="278.3" r="1.88" fill="#22D3EE"/><circle cx="159.0" cy="278.3" r="1.88" fill="#22D3EE"/><circle cx="164.5" cy="278.3" r="1.88" fill="#22D3EE"/><circle cx="170.1" cy="278.3" r="1.88" fill="#22D3EE"/><circle cx="175.6" cy="278.3" r="1.88" fill="#22D3EE"/><circle cx="181.1" cy="278.3" r="1.88" fill="#22D3EE"/><circle cx="186.7" cy="278.3" r="1.88" fill="#22D3EE"/><circle cx="192.2" cy="278.3" r="1.88" fill="#22D3EE"/><circle cx="197.8" cy="278.3" r="1.88" fill="#22D3EE"/><circle cx="203.3" cy="278.3" r="1.88" fill="#22D3EE"/><circle cx="208.9" cy="278.3" r="1.88" fill="#22D3EE"/><circle cx="214.4" cy="278.3" r="1.88" fill="#22D3EE"/><circle cx="219.9" cy="278.3" r="1.88" fill="#22D3EE"/><circle cx="225.5" cy="278.3" r="1.88" fill="#22D3EE"/><circle cx="231.0" cy="278.3" r="1.88" fill="#22D3EE"/><circle cx="236.6" cy="278.3" r="1.88" fill="#22D3EE"/><circle cx="242.1" cy="278.3" r="1.88" fill="#22D3EE"/><circle cx="247.6" cy="278.3" r="1.88" fill="#22D3EE"/><circle cx="125.7" cy="283.8" r="1.88" fill="#22D3EE"/><circle cx="131.3" cy="283.8" r="1.88" fill="#22D3EE"/><circle cx="136.8" cy="283.8" r="1.88" fill="#22D3EE"/><circle cx="142.4" cy="283.8" r="1.88" fill="#22D3EE"/><circle cx="147.9" cy="283.8" r="1.88" fill="#22D3EE"/><circle cx="153.4" cy="283.8" r="1.88" fill="#22D3EE"/><circle cx="159.0" cy="283.8" r="1.88" fill="#22D3EE"/><circle cx="164.5" cy="283.8" r="1.88" fill="#22D3EE"/><circle cx="170.1" cy="283.8" r="1.88" fill="#22D3EE"/><circle cx="175.6" cy="283.8" r="1.88" fill="#22D3EE"/><circle cx="181.1" cy="283.8" r="1.88" fill="#22D3EE"/><circle cx="186.7" cy="283.8" r="1.88" fill="#22D3EE"/><circle cx="192.2" cy="283.8" r="1.88" fill="#22D3EE"/><circle cx="197.8" cy="283.8" r="1.88" fill="#22D3EE"/><circle cx="203.3" cy="283.8" r="1.88" fill="#22D3EE"/><circle cx="208.9" cy="283.8" r="1.88" fill="#22D3EE"/><circle cx="214.4" cy="283.8" r="1.88" fill="#22D3EE"/><circle cx="219.9" cy="283.8" r="1.88" fill="#22D3EE"/><circle cx="225.5" cy="283.8" r="1.88" fill="#22D3EE"/><circle cx="231.0" cy="283.8" r="1.88" fill="#22D3EE"/><circle cx="236.6" cy="283.8" r="1.88" fill="#22D3EE"/><circle cx="242.1" cy="283.8" r="1.88" fill="#22D3EE"/><circle cx="125.7" cy="289.4" r="1.88" fill="#22D3EE"/><circle cx="131.3" cy="289.4" r="1.88" fill="#22D3EE"/><circle cx="136.8" cy="289.4" r="1.88" fill="#22D3EE"/><circle cx="142.4" cy="289.4" r="1.88" fill="#22D3EE"/><circle cx="159.0" cy="289.4" r="1.88" fill="#22D3EE"/><circle cx="164.5" cy="289.4" r="1.88" fill="#22D3EE"/><circle cx="170.1" cy="289.4" r="1.88" fill="#22D3EE"/><circle cx="175.6" cy="289.4" r="1.88" fill="#22D3EE"/><circle cx="181.1" cy="289.4" r="1.88" fill="#22D3EE"/><circle cx="186.7" cy="289.4" r="1.88" fill="#22D3EE"/><circle cx="192.2" cy="289.4" r="1.88" fill="#22D3EE"/><circle cx="197.8" cy="289.4" r="1.88" fill="#22D3EE"/><circle cx="203.3" cy="289.4" r="1.88" fill="#22D3EE"/><circle cx="208.9" cy="289.4" r="1.88" fill="#22D3EE"/><circle cx="214.4" cy="289.4" r="1.88" fill="#22D3EE"/><circle cx="219.9" cy="289.4" r="1.88" fill="#22D3EE"/><circle cx="225.5" cy="289.4" r="1.88" fill="#22D3EE"/><circle cx="231.0" cy="289.4" r="1.88" fill="#22D3EE"/><circle cx="236.6" cy="289.4" r="1.88" fill="#22D3EE"/><circle cx="242.1" cy="289.4" r="1.88" fill="#22D3EE"/><circle cx="159.0" cy="294.9" r="1.88" fill="#22D3EE"/><circle cx="164.5" cy="294.9" r="1.88" fill="#22D3EE"/><circle cx="170.1" cy="294.9" r="1.88" fill="#22D3EE"/><circle cx="175.6" cy="294.9" r="1.88" fill="#22D3EE"/><circle cx="181.1" cy="294.9" r="1.88" fill="#22D3EE"/><circle cx="186.7" cy="294.9" r="1.88" fill="#22D3EE"/><circle cx="192.2" cy="294.9" r="1.88" fill="#22D3EE"/><circle cx="197.8" cy="294.9" r="1.88" fill="#22D3EE"/><circle cx="203.3" cy="294.9" r="1.88" fill="#22D3EE"/><circle cx="208.9" cy="294.9" r="1.88" fill="#22D3EE"/><circle cx="214.4" cy="294.9" r="1.88" fill="#22D3EE"/><circle cx="219.9" cy="294.9" r="1.88" fill="#22D3EE"/><circle cx="225.5" cy="294.9" r="1.88" fill="#22D3EE"/><circle cx="231.0" cy="294.9" r="1.88" fill="#22D3EE"/><circle cx="236.6" cy="294.9" r="1.88" fill="#22D3EE"/><circle cx="242.1" cy="294.9" r="1.88" fill="#22D3EE"/><circle cx="159.0" cy="300.4" r="1.88" fill="#22D3EE"/><circle cx="164.5" cy="300.4" r="1.88" fill="#22D3EE"/><circle cx="170.1" cy="300.4" r="1.88" fill="#22D3EE"/><circle cx="175.6" cy="300.4" r="1.88" fill="#22D3EE"/><circle cx="181.1" cy="300.4" r="1.88" fill="#22D3EE"/><circle cx="186.7" cy="300.4" r="1.88" fill="#22D3EE"/><circle cx="192.2" cy="300.4" r="1.88" fill="#22D3EE"/><circle cx="197.8" cy="300.4" r="1.88" fill="#22D3EE"/><circle cx="203.3" cy="300.4" r="1.88" fill="#22D3EE"/><circle cx="208.9" cy="300.4" r="1.88" fill="#22D3EE"/><circle cx="214.4" cy="300.4" r="1.88" fill="#22D3EE"/><circle cx="219.9" cy="300.4" r="1.88" fill="#22D3EE"/><circle cx="225.5" cy="300.4" r="1.88" fill="#22D3EE"/><circle cx="231.0" cy="300.4" r="1.88" fill="#22D3EE"/><circle cx="236.6" cy="300.4" r="1.88" fill="#22D3EE"/><circle cx="242.1" cy="300.4" r="1.88" fill="#22D3EE"/><circle cx="159.0" cy="306.0" r="1.88" fill="#22D3EE"/><circle cx="164.5" cy="306.0" r="1.88" fill="#22D3EE"/><circle cx="170.1" cy="306.0" r="1.88" fill="#22D3EE"/><circle cx="175.6" cy="306.0" r="1.88" fill="#22D3EE"/><circle cx="181.1" cy="306.0" r="1.88" fill="#22D3EE"/><circle cx="186.7" cy="306.0" r="1.88" fill="#22D3EE"/><circle cx="192.2" cy="306.0" r="1.88" fill="#22D3EE"/><circle cx="197.8" cy="306.0" r="1.88" fill="#22D3EE"/><circle cx="203.3" cy="306.0" r="1.88" fill="#22D3EE"/><circle cx="208.9" cy="306.0" r="1.88" fill="#22D3EE"/><circle cx="214.4" cy="306.0" r="1.88" fill="#22D3EE"/><circle cx="219.9" cy="306.0" r="1.88" fill="#22D3EE"/><circle cx="225.5" cy="306.0" r="1.88" fill="#22D3EE"/><circle cx="231.0" cy="306.0" r="1.88" fill="#22D3EE"/><circle cx="236.6" cy="306.0" r="1.88" fill="#22D3EE"/><circle cx="242.1" cy="306.0" r="1.88" fill="#22D3EE"/><circle cx="159.0" cy="311.5" r="1.88" fill="#22D3EE"/><circle cx="164.5" cy="311.5" r="1.88" fill="#22D3EE"/><circle cx="170.1" cy="311.5" r="1.88" fill="#22D3EE"/><circle cx="175.6" cy="311.5" r="1.88" fill="#22D3EE"/><circle cx="181.1" cy="311.5" r="1.88" fill="#22D3EE"/><circle cx="186.7" cy="311.5" r="1.88" fill="#22D3EE"/><circle cx="192.2" cy="311.5" r="1.88" fill="#22D3EE"/><circle cx="197.8" cy="311.5" r="1.88" fill="#22D3EE"/><circle cx="203.3" cy="311.5" r="1.88" fill="#22D3EE"/><circle cx="208.9" cy="311.5" r="1.88" fill="#22D3EE"/><circle cx="214.4" cy="311.5" r="1.88" fill="#22D3EE"/><circle cx="219.9" cy="311.5" r="1.88" fill="#22D3EE"/><circle cx="225.5" cy="311.5" r="1.88" fill="#22D3EE"/><circle cx="231.0" cy="311.5" r="1.88" fill="#22D3EE"/><circle cx="236.6" cy="311.5" r="1.88" fill="#22D3EE"/><circle cx="242.1" cy="311.5" r="1.88" fill="#22D3EE"/><circle cx="159.0" cy="317.1" r="1.88" fill="#22D3EE"/><circle cx="164.5" cy="317.1" r="1.88" fill="#22D3EE"/><circle cx="170.1" cy="317.1" r="1.88" fill="#22D3EE"/><circle cx="175.6" cy="317.1" r="1.88" fill="#22D3EE"/><circle cx="181.1" cy="317.1" r="1.88" fill="#22D3EE"/><circle cx="186.7" cy="317.1" r="1.88" fill="#22D3EE"/><circle cx="192.2" cy="317.1" r="1.88" fill="#22D3EE"/><circle cx="197.8" cy="317.1" r="1.88" fill="#22D3EE"/><circle cx="203.3" cy="317.1" r="1.88" fill="#22D3EE"/><circle cx="208.9" cy="317.1" r="1.88" fill="#22D3EE"/><circle cx="214.4" cy="317.1" r="1.88" fill="#22D3EE"/><circle cx="219.9" cy="317.1" r="1.88" fill="#22D3EE"/><circle cx="225.5" cy="317.1" r="1.88" fill="#22D3EE"/><circle cx="231.0" cy="317.1" r="1.88" fill="#22D3EE"/><circle cx="236.6" cy="317.1" r="1.88" fill="#22D3EE"/><circle cx="242.1" cy="317.1" r="1.88" fill="#22D3EE"/><circle cx="159.0" cy="322.6" r="1.88" fill="#22D3EE"/><circle cx="164.5" cy="322.6" r="1.88" fill="#22D3EE"/><circle cx="170.1" cy="322.6" r="1.88" fill="#22D3EE"/><circle cx="175.6" cy="322.6" r="1.88" fill="#22D3EE"/><circle cx="181.1" cy="322.6" r="1.88" fill="#22D3EE"/><circle cx="186.7" cy="322.6" r="1.88" fill="#22D3EE"/><circle cx="192.2" cy="322.6" r="1.88" fill="#22D3EE"/><circle cx="197.8" cy="322.6" r="1.88" fill="#22D3EE"/><circle cx="203.3" cy="322.6" r="1.88" fill="#22D3EE"/><circle cx="208.9" cy="322.6" r="1.88" fill="#22D3EE"/><circle cx="214.4" cy="322.6" r="1.88" fill="#22D3EE"/><circle cx="219.9" cy="322.6" r="1.88" fill="#22D3EE"/><circle cx="225.5" cy="322.6" r="1.88" fill="#22D3EE"/><circle cx="231.0" cy="322.6" r="1.88" fill="#22D3EE"/><circle cx="236.6" cy="322.6" r="1.88" fill="#22D3EE"/><circle cx="242.1" cy="322.6" r="1.88" fill="#22D3EE"/><circle cx="159.0" cy="328.1" r="1.88" fill="#22D3EE"/><circle cx="164.5" cy="328.1" r="1.88" fill="#22D3EE"/><circle cx="170.1" cy="328.1" r="1.88" fill="#22D3EE"/><circle cx="175.6" cy="328.1" r="1.88" fill="#22D3EE"/><circle cx="181.1" cy="328.1" r="1.88" fill="#22D3EE"/><circle cx="186.7" cy="328.1" r="1.88" fill="#22D3EE"/><circle cx="192.2" cy="328.1" r="1.88" fill="#22D3EE"/><circle cx="197.8" cy="328.1" r="1.88" fill="#22D3EE"/><circle cx="203.3" cy="328.1" r="1.88" fill="#22D3EE"/><circle cx="208.9" cy="328.1" r="1.88" fill="#22D3EE"/><circle cx="214.4" cy="328.1" r="1.88" fill="#22D3EE"/><circle cx="219.9" cy="328.1" r="1.88" fill="#22D3EE"/><circle cx="225.5" cy="328.1" r="1.88" fill="#22D3EE"/><circle cx="231.0" cy="328.1" r="1.88" fill="#22D3EE"/><circle cx="236.6" cy="328.1" r="1.88" fill="#22D3EE"/><circle cx="242.1" cy="328.1" r="1.88" fill="#22D3EE"/><circle cx="186.7" cy="333.7" r="1.88" fill="#22D3EE"/><circle cx="192.2" cy="333.7" r="1.88" fill="#22D3EE"/><circle cx="197.8" cy="333.7" r="1.88" fill="#22D3EE"/><circle cx="203.3" cy="333.7" r="1.88" fill="#22D3EE"/><circle cx="208.9" cy="333.7" r="1.88" fill="#22D3EE"/></g><text x="22.0" y="388.0" font-family="Consolas,Liberation Mono,monospace" font-size="11" font-weight="400" fill="#34D399" text-anchor="start" class="boot">$ boot profile --mode professional</text><text x="22.0" y="430.0" font-family="Segoe UI,Helvetica,Arial,sans-serif" font-size="27" font-weight="700" fill="#E8EEF5" text-anchor="start" class="boot d1">Sushant Nemade</text><text x="22.0" y="462.0" font-family="Segoe UI,Helvetica,Arial,sans-serif" font-size="13" font-weight="700" fill="#22D3EE" text-anchor="start" class="boot d2">Enterprise GenAI / RAG / Analytics</text><text x="22.0" y="483.0" font-family="Segoe UI,Helvetica,Arial,sans-serif" font-size="13" font-weight="700" fill="#22D3EE" text-anchor="start" class="boot d2">Automation</text><path d="M22 503 H368" stroke="#293241"/><text x="22.0" y="535.0" font-family="Consolas,Liberation Mono,monospace" font-size="9" font-weight="700" fill="#8792A2" text-anchor="start" class="boot d1">LOCATION</text><text x="112.0" y="535.0" font-family="Consolas,Liberation Mono,monospace" font-size="10" font-weight="400" fill="#E8EEF5" text-anchor="start" class="boot d1">Erlangen, Germany</text><text x="22.0" y="566.0" font-family="Consolas,Liberation Mono,monospace" font-size="9" font-weight="700" fill="#8792A2" text-anchor="start" class="boot d2">EDUCATION</text><text x="112.0" y="566.0" font-family="Consolas,Liberation Mono,monospace" font-size="10" font-weight="400" fill="#E8EEF5" text-anchor="start" class="boot d2">M.Sc. ICT @ FAU</text><text x="22.0" y="597.0" font-family="Consolas,Liberation Mono,monospace" font-size="9" font-weight="700" fill="#8792A2" text-anchor="start" class="boot d3">FOCUS</text><text x="112.0" y="597.0" font-family="Consolas,Liberation Mono,monospace" font-size="10" font-weight="400" fill="#E8EEF5" text-anchor="start" class="boot d3">GenAI / RAG / Analytics / Automation</text><text x="22.0" y="628.0" font-family="Consolas,Liberation Mono,monospace" font-size="9" font-weight="700" fill="#8792A2" text-anchor="start" class="boot d3">PRINCIPLES</text><text x="112.0" y="628.0" font-family="Consolas,Liberation Mono,monospace" font-size="10" font-weight="400" fill="#E8EEF5" text-anchor="start" class="boot d3">Responsible AI / GDPR / Oversight</text><text x="22.0" y="659.0" font-family="Consolas,Liberation Mono,monospace" font-size="9" font-weight="700" fill="#8792A2" text-anchor="start" class="boot d3">STATUS</text><text x="112.0" y="659.0" font-family="Consolas,Liberation Mono,monospace" font-size="10" font-weight="400" fill="#E8EEF5" text-anchor="start" class="boot d3">Open to full-time Data and AI roles</text><rect x="22" y="690" width="9" height="16" fill="#34D399" class="cursor"/></svg>